<svg width="16" height="16" viewBox="0 0 16 16" fill="none" xmlns="http://www.w3.org/2000/svg">
<path d="M15.8609 3.81166C15.7363 3.65217 15.5453 3.55895 15.3429 3.55895H2.83262L2.64666 1.48729C2.61625 1.1485 2.33231 0.888916 1.99219 0.888916H0.657105C0.294195 0.888916 0 1.18311 0 1.54602C0 1.90893 0.294195 2.20313 0.657105 2.20313H1.39143L2.11168 10.2273C2.11184 10.2367 2.11137 10.246 2.1119 10.2555C2.11337 10.2808 2.11666 10.3054 2.12085 10.3297L2.1472 10.6231C2.1477 10.6286 2.14826 10.6342 2.14892 10.6396C2.22877 11.3315 2.58233 11.9309 3.09359 12.3359C2.82868 12.6742 2.67016 13.0996 2.67016 13.5616C2.67016 14.6601 3.56385 15.5538 4.66231 15.5538C5.76081 15.5538 6.6545 14.6601 6.6545 13.5616C6.6545 13.3237 6.61241 13.0954 6.53556 12.8836H10.132C10.0551 13.0954 10.0131 13.3237 10.0131 13.5616C10.0131 14.6601 10.9067 15.5538 12.0052 15.5538C13.1037 15.5538 13.9974 14.6601 13.9974 13.5616C13.9974 12.4631 13.1037 11.5694 12.0052 11.5694H4.66676C4.16761 11.5694 3.73264 11.2683 3.54489 10.8295L14.0463 10.2124C14.333 10.1955 14.5756 9.99439 14.6452 9.71577L15.9804 4.37539C16.0294 4.17913 15.9854 3.97118 15.8609 3.81166Z" fill="#1D3130"/>
</svg>
