<svg width="88" height="88" viewBox="0 0 88 88" fill="none" xmlns="http://www.w3.org/2000/svg">
<circle cx="44" cy="44" r="43" stroke="#1D3130" stroke-width="2"/>
<g clip-path="url(#clip0_2_310)">
<path d="M66.3706 41.9924L63.1021 40.5778L60.3265 35.1767C59.5764 33.6978 58.0546 32.7762 56.3936 32.7869H51.614V31.4366C51.614 28.9933 49.6636 27 47.2202 27H24.3726C21.9293 27 20.0003 29.004 20.0003 31.4366V52.1195C19.9789 53.6091 21.1684 54.8308 22.658 54.8522C22.6687 54.8522 22.6794 54.8522 22.7008 54.8522H23.2688C23.2688 54.9594 23.2581 55.0022 23.2581 55.0665C23.2474 58.1315 25.7229 60.6284 28.7878 60.6391C31.8527 60.6498 34.3497 58.1743 34.3604 55.1094C34.3604 55.088 34.3604 55.0773 34.3604 55.0558C34.3604 54.9808 34.3604 54.9487 34.3497 54.8415H52.8142C52.8142 54.9487 52.8142 54.9915 52.8142 55.0558C52.8035 58.1207 55.279 60.6177 58.344 60.6284C61.4089 60.6391 63.9058 58.1636 63.9165 55.0987C63.9165 55.0773 63.9165 55.0665 63.9165 55.0451C63.9165 54.9701 63.9165 54.9379 63.9165 54.8308H65.299C66.7886 54.8308 67.9995 53.6198 67.9995 52.1302C67.9995 52.1195 67.9995 52.1088 67.9995 52.0874V44.4786C68.021 43.4284 67.378 42.4318 66.3706 41.9924ZM28.82 58.5065C26.9339 58.5065 25.4121 56.9848 25.4121 55.0987C25.4121 53.2126 26.9339 51.6908 28.82 51.6908C30.7061 51.6908 32.2278 53.2126 32.2278 55.0987C32.2278 56.9741 30.6954 58.5065 28.82 58.5065ZM49.4707 52.7303H33.846C32.9458 50.7692 30.974 49.5154 28.82 49.5261C26.6552 49.5154 24.6941 50.7585 23.7939 52.7303H22.7008C22.3686 52.7303 22.1436 52.4731 22.1436 52.1409V46.6219H49.4707V52.7303ZM49.4707 31.4474V44.4786H22.1436V31.4474C22.1436 30.1935 23.1188 29.154 24.3726 29.154H47.2202C48.4741 29.1647 49.4814 30.1935 49.4707 31.4366V31.4474ZM51.614 34.9409H56.3936C57.2402 34.9302 58.0332 35.391 58.4297 36.1519L60.573 40.2992H51.614V34.9409ZM58.3761 58.5065C56.49 58.5065 54.9683 56.9848 54.9683 55.0987C54.9683 53.2126 56.49 51.6908 58.3761 51.6908C60.2622 51.6908 61.784 53.2126 61.784 55.0987C61.784 56.9741 60.2622 58.5065 58.3761 58.5065ZM65.867 52.1409C65.867 52.4731 65.6419 52.7303 65.3097 52.7303H63.4022C62.1055 49.9548 58.8048 48.7545 56.0292 50.0512C54.8504 50.5978 53.8966 51.5515 53.3501 52.7303H51.614V42.4425H62.1162L65.524 43.9428C65.7384 44.05 65.8777 44.2857 65.867 44.5215V52.1409Z" fill="black"/>
</g>
<defs>
<clipPath id="clip0_2_310">
<rect width="48" height="48" fill="white" transform="translate(20 20)"/>
</clipPath>
</defs>
</svg>
