<svg width="88" height="88" viewBox="0 0 88 88" fill="none" xmlns="http://www.w3.org/2000/svg">
<circle cx="44" cy="44" r="43" stroke="#1D3130" stroke-width="2"/>
<g clip-path="url(#clip0_2_311)">
<path d="M66.3573 43.5192H65.6204C65.549 43.0872 65.5121 42.6796 65.5941 42.3776C65.7382 41.8468 66.2123 41.2843 66.6707 40.7402C67.3202 39.9696 67.9917 39.1728 67.9999 38.2008C68.0101 36.9774 67.1655 36.0671 66.4202 35.2639C66.0157 34.8279 65.6335 34.4161 65.4854 34.0553C65.308 33.6227 65.2206 33.0382 65.136 32.4731C64.9599 31.2949 64.7602 29.9595 63.6358 29.3829C62.5101 28.8067 61.3094 29.4246 60.2495 29.97C59.7418 30.2314 59.2166 30.5016 58.7626 30.6102C58.4237 30.691 57.9195 30.6404 57.4734 30.5865C57.0884 30.5399 56.7376 30.8147 56.691 31.2002C56.6445 31.5857 56.9193 31.936 57.3048 31.9825C57.8977 32.0542 58.5243 32.1127 59.0893 31.9779C59.709 31.8297 60.3109 31.52 60.893 31.2203C61.7255 30.7919 62.5118 30.3872 62.9943 30.6344C63.4762 30.8814 63.6069 31.7555 63.7453 32.6811C63.8421 33.329 63.9424 33.999 64.1844 34.5892C64.4293 35.1858 64.9173 35.7118 65.3894 36.2205C65.9842 36.8615 66.5992 37.5244 66.5937 38.1891C66.5898 38.6543 66.0842 39.2541 65.5955 39.8341C65.0385 40.4951 64.4626 41.1784 64.2371 42.0091C64.1068 42.4889 64.1281 43.0098 64.1986 43.5193H59.477C59.466 42.9018 59.2003 42.3478 58.839 41.8248C59.3112 40.5163 59.7306 39.1697 60.086 37.8156C60.1847 37.4401 59.96 37.0557 59.5845 36.9571C59.2086 36.8585 58.8245 37.0831 58.7259 37.4587C58.4547 38.4919 58.1449 39.5205 57.8024 40.5303C57.3914 40.0333 57.0123 39.5278 56.8801 39.041C56.7493 38.5598 56.8847 37.8677 57.0279 37.1351C57.2331 36.0853 57.4658 34.8954 56.9482 33.8853C56.4304 32.8748 55.328 32.3688 54.3554 31.9222C53.6773 31.6109 53.0368 31.3168 52.7228 30.9308C52.3406 30.4596 52.1448 29.6826 51.9554 28.9311C51.6918 27.8845 51.4191 26.8024 50.5878 26.193C49.5389 25.425 48.2186 25.5903 47.054 25.736C46.4109 25.8165 45.8035 25.8926 45.3837 25.7923C44.8851 25.6734 44.3139 25.3795 43.7614 25.0953C42.6286 24.5125 41.3451 23.852 40.1552 24.462C39.0258 25.0408 38.7763 26.3575 38.5927 27.5676C38.0284 27.304 37.5222 27.0415 37.2541 26.712C36.8719 26.2407 36.6761 25.4637 36.4867 24.7122C36.2231 23.6657 35.9504 22.5835 35.1191 21.9742C34.0702 21.2062 32.7499 21.3715 31.5853 21.5171C30.9424 21.5977 30.3349 21.6736 29.915 21.5735C29.4164 21.4545 28.8452 21.1607 28.2927 20.8765C27.16 20.2939 25.8763 19.6335 24.6868 20.2432C23.497 20.8525 23.2834 22.2803 23.095 23.5401C23.0032 24.1546 22.908 24.7899 22.7133 25.2645C22.5496 25.6639 22.1332 26.1127 21.6922 26.5879C20.894 27.4481 19.9893 28.4232 20.0001 29.7231C20.0088 30.7536 20.7282 31.6072 21.4239 32.4327C21.9234 33.0253 22.4398 33.638 22.5989 34.223C22.7292 34.7036 22.5939 35.3954 22.4506 36.1277C22.2451 37.1779 22.0121 38.3684 22.5299 39.378C23.0475 40.3882 24.1495 40.8943 25.1219 41.3408C25.8003 41.6523 26.4411 41.9466 26.7556 42.334C26.9988 42.6332 27.1663 43.0571 27.3049 43.5192H21.6427C20.7153 43.5141 19.9501 44.3239 20.0029 45.2487C20.1508 47.8409 20.8461 50.3117 22.0692 52.5922C22.2528 52.9345 22.6791 53.0632 23.0212 52.8795C23.3633 52.6959 23.492 52.2697 23.3084 51.9276C22.1829 49.8288 21.543 47.5547 21.4067 45.1684C21.3985 45.0255 21.4891 44.9303 21.6427 44.9254H66.3573C66.5124 44.9309 66.6013 45.0251 66.5932 45.1685C66.365 49.1654 64.6766 52.9296 61.8387 55.7677C58.6904 58.9163 54.6784 60.5381 50.294 60.5497H37.7059C32.7609 60.5486 28.2035 58.4077 25.0444 54.5306C24.7991 54.2296 24.3563 54.1842 24.0551 54.4298C23.7541 54.6752 23.709 55.118 23.9543 55.4191C26.1571 58.1216 29.0483 60.0734 32.2737 61.1083V63.1155C32.2737 65.8087 34.4648 67.9998 37.158 67.9998H50.8418C53.5351 67.9998 55.7262 65.8087 55.7262 63.1155V61.1112C58.3773 60.2615 60.8071 58.7875 62.8331 56.762C65.9154 53.6795 67.7493 49.5907 67.9972 45.2487C68.05 44.3238 67.2797 43.5146 66.3573 43.5192ZM36.4362 43.5192C34.681 40.8636 33.184 38.0422 31.9857 35.1263C31.1628 33.1253 30.4654 31.0424 29.9128 28.9351C29.8142 28.5594 29.4299 28.3349 29.0543 28.4332C28.6787 28.5318 28.454 28.9161 28.5525 29.2917C29.1209 31.4594 29.8384 33.6023 30.685 35.661C31.8018 38.3784 33.17 41.0162 34.7597 43.5192H28.7658C28.5679 42.7731 28.3251 42.0355 27.8472 41.4474C27.3262 40.8056 26.5041 40.4279 25.7088 40.0628C24.9065 39.6944 24.077 39.3135 23.7813 38.7365C23.4858 38.1602 23.6611 37.2642 23.8306 36.3977C23.9985 35.5394 24.1722 34.6519 23.9559 33.8544C23.7152 32.9693 23.097 32.2358 22.4991 31.5264C21.9639 30.8915 21.4106 30.2348 21.4062 29.7112C21.4 28.9701 22.0725 28.2453 22.7229 27.5443C23.2297 26.9981 23.7537 26.4333 24.0142 25.7982C24.2735 25.1664 24.3813 24.4454 24.4856 23.7481C24.6374 22.7334 24.7808 21.775 25.3279 21.4947C25.8753 21.2142 26.7366 21.6577 27.6492 22.1271C28.2761 22.4496 28.9244 22.783 29.5885 22.9415C30.2559 23.1009 31.0205 23.0051 31.7598 22.9127C32.7088 22.7939 33.6902 22.6711 34.288 23.1087C34.7104 23.4184 34.9201 24.2509 35.123 25.0559C35.3496 25.9554 35.584 26.8856 36.1624 27.5987C36.6835 28.2396 37.5052 28.6168 38.2999 28.9816C39.1025 29.35 39.9323 29.731 40.2279 30.3079C40.5234 30.8846 40.3483 31.7804 40.1789 32.6465C40.011 33.5053 39.8374 34.3932 40.054 35.1902C40.1501 35.5456 40.3101 35.8757 40.49 36.1727C38.5974 37.1832 37.3062 39.1777 37.3062 41.4688C37.3062 42.1722 37.4298 42.8657 37.6674 43.5193H36.4362V43.5192ZM47.4168 43.5192H39.1956C38.8789 42.8852 38.7124 42.1838 38.7124 41.4687C38.7124 38.9356 40.7731 36.8749 43.3062 36.8749C45.8392 36.8749 47.8999 38.9356 47.8999 41.4687C47.9 42.1839 47.7334 42.8853 47.4168 43.5192ZM52.3293 43.5192H48.945C49.1826 42.8656 49.3061 42.1722 49.3061 41.4687C49.3061 39.6804 48.5188 38.0734 47.2736 36.9732C47.5811 36.9091 47.8963 36.8749 48.2186 36.8749C50.7517 36.8749 52.8124 38.9356 52.8124 41.4687C52.8125 42.1839 52.646 42.8853 52.3293 43.5192ZM53.8575 43.5192C54.095 42.8656 54.2187 42.1722 54.2187 41.4687C54.2187 38.1602 51.5272 35.4687 48.2187 35.4687C47.3704 35.4687 46.5271 35.6498 45.7587 35.9949C45.0094 35.6579 44.1797 35.4687 43.3062 35.4687C42.7964 35.4687 42.3013 35.5331 41.8284 35.6533C41.6517 35.3955 41.489 35.1089 41.4114 34.8221C41.2806 34.3409 41.416 33.6488 41.5592 32.9162C41.7644 31.8664 41.9971 30.6765 41.4795 29.6663C41.1417 29.0071 40.5547 28.5632 39.9177 28.2098C40.0699 27.2095 40.2069 26.0155 40.7968 25.7134C41.3442 25.433 42.2055 25.8763 43.1181 26.3457C43.745 26.6682 44.3933 27.0017 45.0574 27.1601C45.7249 27.3195 46.4893 27.2238 47.2287 27.1313C48.1777 27.0126 49.1591 26.8898 49.7569 27.3274C50.1793 27.6371 50.389 28.4695 50.5919 29.2746C50.8185 30.1741 51.0529 31.1043 51.6313 31.8173C52.1524 32.4582 52.9741 32.8354 53.7688 33.2002C54.5714 33.5687 55.4012 33.9497 55.6968 34.5265C55.9923 35.1033 55.8171 35.999 55.6478 36.8652C55.4799 37.7239 55.3063 38.6118 55.523 39.4095C55.7634 40.2951 56.3818 41.0289 56.9798 41.7385C57.5036 42.3599 58.0434 43.0019 58.0696 43.5192H53.8575ZM54.32 63.1155C54.32 65.0333 52.7597 66.5936 50.8418 66.5936H37.1581C35.2403 66.5936 33.68 65.0333 33.68 63.1155V61.4959C34.9853 61.7986 36.3343 61.956 37.7059 61.956H50.294C51.6665 61.956 53.0149 61.8001 54.3199 61.4985V63.1155H54.32Z" fill="black"/>
</g>
<defs>
<clipPath id="clip0_2_311">
<rect width="48" height="48" fill="white" transform="translate(20 20)"/>
</clipPath>
</defs>
</svg>
