<svg width="224" height="40" viewBox="0 0 224 40" fill="none" xmlns="http://www.w3.org/2000/svg">
<path d="M49.8242 9.18945H44.1992V15H41.2695V0.78125H50.5273V3.1543H44.1992V6.82617H49.8242V9.18945ZM63.9062 8.21289C63.9062 9.61263 63.6589 10.8398 63.1641 11.8945C62.6693 12.9492 61.9596 13.763 61.0352 14.3359C60.1172 14.9089 59.0625 15.1953 57.8711 15.1953C56.6927 15.1953 55.6413 14.9121 54.7168 14.3457C53.7923 13.7793 53.0762 12.972 52.5684 11.9238C52.0605 10.8691 51.8034 9.6582 51.7969 8.29102V7.58789C51.7969 6.18815 52.0475 4.95768 52.5488 3.89648C53.0566 2.82878 53.7695 2.01172 54.6875 1.44531C55.612 0.872396 56.6667 0.585938 57.8516 0.585938C59.0365 0.585938 60.0879 0.872396 61.0059 1.44531C61.9303 2.01172 62.6432 2.82878 63.1445 3.89648C63.6523 4.95768 63.9062 6.1849 63.9062 7.57812V8.21289ZM60.9375 7.56836C60.9375 6.07747 60.6706 4.94466 60.1367 4.16992C59.6029 3.39518 58.8411 3.00781 57.8516 3.00781C56.8685 3.00781 56.11 3.39193 55.5762 4.16016C55.0423 4.92188 54.7721 6.04167 54.7656 7.51953V8.21289C54.7656 9.66471 55.0326 10.791 55.5664 11.5918C56.1003 12.3926 56.8685 12.793 57.8711 12.793C58.8542 12.793 59.6094 12.4089 60.1367 11.6406C60.6641 10.8659 60.931 9.73958 60.9375 8.26172V7.56836ZM77.7148 8.21289C77.7148 9.61263 77.4674 10.8398 76.9727 11.8945C76.4779 12.9492 75.7682 13.763 74.8438 14.3359C73.9258 14.9089 72.8711 15.1953 71.6797 15.1953C70.5013 15.1953 69.4499 14.9121 68.5254 14.3457C67.6009 13.7793 66.8848 12.972 66.377 11.9238C65.8691 10.8691 65.612 9.6582 65.6055 8.29102V7.58789C65.6055 6.18815 65.8561 4.95768 66.3574 3.89648C66.8652 2.82878 67.5781 2.01172 68.4961 1.44531C69.4206 0.872396 70.4753 0.585938 71.6602 0.585938C72.8451 0.585938 73.8965 0.872396 74.8145 1.44531C75.7389 2.01172 76.4518 2.82878 76.9531 3.89648C77.4609 4.95768 77.7148 6.1849 77.7148 7.57812V8.21289ZM74.7461 7.56836C74.7461 6.07747 74.4792 4.94466 73.9453 4.16992C73.4115 3.39518 72.6497 3.00781 71.6602 3.00781C70.6771 3.00781 69.9186 3.39193 69.3848 4.16016C68.8509 4.92188 68.5807 6.04167 68.5742 7.51953V8.21289C68.5742 9.66471 68.8411 10.791 69.375 11.5918C69.9089 12.3926 70.6771 12.793 71.6797 12.793C72.6628 12.793 73.418 12.4089 73.9453 11.6406C74.4727 10.8659 74.7396 9.73958 74.7461 8.26172V7.56836ZM79.8438 15V0.78125H84.2188C85.4688 0.78125 86.5853 1.06445 87.5684 1.63086C88.5579 2.19076 89.3294 2.99154 89.8828 4.0332C90.4362 5.06836 90.7129 6.24674 90.7129 7.56836V8.22266C90.7129 9.54427 90.4395 10.7194 89.8926 11.748C89.3522 12.7767 88.5872 13.5742 87.5977 14.1406C86.6081 14.707 85.4915 14.9935 84.248 15H79.8438ZM82.7734 3.1543V12.6465H84.1895C85.3353 12.6465 86.2109 12.2721 86.8164 11.5234C87.4219 10.7747 87.7311 9.70378 87.7441 8.31055V7.55859C87.7441 6.11328 87.4447 5.01953 86.8457 4.27734C86.2467 3.52865 85.3711 3.1543 84.2188 3.1543H82.7734ZM100.762 9.99023V15H97.832V0.78125H103.379C104.447 0.78125 105.384 0.976562 106.191 1.36719C107.005 1.75781 107.63 2.31445 108.066 3.03711C108.503 3.75326 108.721 4.57031 108.721 5.48828C108.721 6.88151 108.242 7.98177 107.285 8.78906C106.335 9.58984 105.016 9.99023 103.33 9.99023H100.762ZM100.762 7.61719H103.379C104.154 7.61719 104.743 7.4349 105.146 7.07031C105.557 6.70573 105.762 6.1849 105.762 5.50781C105.762 4.8112 105.557 4.24805 105.146 3.81836C104.736 3.38867 104.17 3.16732 103.447 3.1543H100.762V7.61719ZM113.672 12.6465H119.893V15H110.742V0.78125H113.672V12.6465ZM129.805 12.0703H124.668L123.691 15H120.576L125.869 0.78125H128.584L133.906 15H130.791L129.805 12.0703ZM125.459 9.69727H129.014L127.227 4.375L125.459 9.69727ZM146.797 15H143.867L138.164 5.64453V15H135.234V0.78125H138.164L143.877 10.1562V0.78125H146.797V15ZM157.91 8.83789H152.285V12.6465H158.887V15H149.355V0.78125H158.867V3.1543H152.285V6.54297H157.91V8.83789ZM171.504 3.1543H167.148V15H164.219V3.1543H159.922V0.78125H171.504V3.1543Z" fill="#254F4C"/>
<path d="M17.6039 11.1051L21.5566 14.6665L23.0002 13.0793C24.6126 13.4737 26.398 13.0575 27.6788 11.7829C28.5896 10.8765 29.5612 9.19083 30.0966 7.58843C30.8193 5.42499 30.6884 3.77102 29.7179 2.80535C28.7476 1.83956 27.0855 1.7092 24.9115 2.42846C23.3012 2.96121 21.6074 3.92812 20.6966 4.83453C19.4414 6.08355 18.9885 7.85089 19.3941 9.4916L17.6039 11.1051Z" fill="#246864"/>
<path d="M10.5164 17.4702L1.26622 25.8068C0.494835 26.4863 0.0341148 27.4633 0.00186686 28.4881C-0.0642539 30.5922 1.63445 32.3428 3.7575 32.3428C4.80068 32.3428 5.84043 31.9004 6.56763 31.083L14.7332 22.1051L10.5164 17.4702Z" fill="#246864"/>
<path d="M31.9985 28.1356C31.9662 27.1108 31.5056 26.1338 30.7342 25.4544C29.7913 24.6048 13.3189 9.7629 12.8779 9.36555C13.3128 7.79834 12.9138 6.04799 11.6784 4.81855C11.2595 4.40168 7.69643 0.855868 7.25927 0.420828C6.89317 0.0565014 6.29964 0.0565014 5.93354 0.420828C5.56744 0.785092 5.56744 1.3758 5.93354 1.74013L8.45244 4.24688L6.94991 5.74212L4.43095 3.23531C4.06491 2.87092 3.47138 2.87104 3.10522 3.23531C2.73911 3.59957 2.73911 4.19028 3.10522 4.55461L5.62412 7.0613L4.12159 8.55654L1.60269 6.04985C1.23665 5.68559 0.643059 5.68559 0.276957 6.04985C-0.0891451 6.41412 -0.0891451 7.00482 0.276957 7.36915C4.39339 11.4656 0.45782 7.54908 4.69605 11.7669C5.90042 12.9654 7.64274 13.4065 9.2652 12.9606C35.5276 41.8261 16.0129 20.377 25.4324 30.7301C26.1153 31.4978 27.097 31.9564 28.1269 31.9884C30.2896 32.0563 32.0661 30.2885 31.9985 28.1356Z" fill="#246864"/>
<path d="M50.0078 36H48.5V25.8594H42.8906V36H41.3906V24.625H50.0078V36ZM59.4453 27.5469V36H57.9922V28.7422H55.1172L54.9453 31.9062C54.8516 33.3594 54.6068 34.3984 54.2109 35.0234C53.8203 35.6484 53.1979 35.974 52.3438 36H51.7656V34.7266L52.1797 34.6953C52.6484 34.6432 52.9844 34.3724 53.1875 33.8828C53.3906 33.3932 53.5208 32.487 53.5781 31.1641L53.7344 27.5469H59.4453ZM66.9844 36C66.901 35.8333 66.8333 35.5365 66.7812 35.1094C66.1094 35.8073 65.3073 36.1562 64.375 36.1562C63.5417 36.1562 62.8568 35.9219 62.3203 35.4531C61.7891 34.9792 61.5234 34.3802 61.5234 33.6562C61.5234 32.776 61.8568 32.0938 62.5234 31.6094C63.1953 31.1198 64.138 30.875 65.3516 30.875H66.7578V30.2109C66.7578 29.7057 66.6068 29.3047 66.3047 29.0078C66.0026 28.7057 65.5573 28.5547 64.9688 28.5547C64.4531 28.5547 64.0208 28.6849 63.6719 28.9453C63.3229 29.2057 63.1484 29.5208 63.1484 29.8906H61.6953C61.6953 29.4688 61.8438 29.0625 62.1406 28.6719C62.4427 28.276 62.849 27.9635 63.3594 27.7344C63.875 27.5052 64.4401 27.3906 65.0547 27.3906C66.0286 27.3906 66.7917 27.6354 67.3438 28.125C67.8958 28.6094 68.1823 29.2786 68.2031 30.1328V34.0234C68.2031 34.7995 68.3021 35.4167 68.5 35.875V36H66.9844ZM64.5859 34.8984C65.0391 34.8984 65.4688 34.7812 65.875 34.5469C66.2812 34.3125 66.5755 34.0078 66.7578 33.6328V31.8984H65.625C63.8542 31.8984 62.9688 32.4167 62.9688 33.4531C62.9688 33.9062 63.1198 34.2604 63.4219 34.5156C63.724 34.7708 64.112 34.8984 64.5859 34.8984ZM77.375 36H75.9297V32.3906H72.0469V36H70.5938V27.5469H72.0469V31.2109H75.9297V27.5469H77.375V36ZM83.2109 36.1562C82.0651 36.1562 81.1328 35.7812 80.4141 35.0312C79.6953 34.276 79.3359 33.2682 79.3359 32.0078V31.7422C79.3359 30.9036 79.4948 30.1562 79.8125 29.5C80.1354 28.8385 80.5833 28.3229 81.1562 27.9531C81.7344 27.5781 82.3594 27.3906 83.0312 27.3906C84.1302 27.3906 84.9844 27.7526 85.5938 28.4766C86.2031 29.2005 86.5078 30.237 86.5078 31.5859V32.1875H80.7812C80.8021 33.0208 81.0443 33.6953 81.5078 34.2109C81.9766 34.7214 82.5703 34.9766 83.2891 34.9766C83.7995 34.9766 84.2318 34.8724 84.5859 34.6641C84.9401 34.4557 85.25 34.1797 85.5156 33.8359L86.3984 34.5234C85.6901 35.612 84.6276 36.1562 83.2109 36.1562ZM83.0312 28.5781C82.4479 28.5781 81.9583 28.7917 81.5625 29.2188C81.1667 29.6406 80.9219 30.2344 80.8281 31H85.0625V30.8906C85.0208 30.1562 84.8229 29.5885 84.4688 29.1875C84.1146 28.7812 83.6354 28.5781 83.0312 28.5781ZM94.375 28.7188H91.5391V36H90.0938V28.7188H87.3125V27.5469H94.375V28.7188ZM100.875 36C100.792 35.8333 100.724 35.5365 100.672 35.1094C100 35.8073 99.1979 36.1562 98.2656 36.1562C97.4323 36.1562 96.7474 35.9219 96.2109 35.4531C95.6797 34.9792 95.4141 34.3802 95.4141 33.6562C95.4141 32.776 95.7474 32.0938 96.4141 31.6094C97.0859 31.1198 98.0286 30.875 99.2422 30.875H100.648V30.2109C100.648 29.7057 100.497 29.3047 100.195 29.0078C99.8932 28.7057 99.4479 28.5547 98.8594 28.5547C98.3438 28.5547 97.9115 28.6849 97.5625 28.9453C97.2135 29.2057 97.0391 29.5208 97.0391 29.8906H95.5859C95.5859 29.4688 95.7344 29.0625 96.0312 28.6719C96.3333 28.276 96.7396 27.9635 97.25 27.7344C97.7656 27.5052 98.3307 27.3906 98.9453 27.3906C99.9193 27.3906 100.682 27.6354 101.234 28.125C101.786 28.6094 102.073 29.2786 102.094 30.1328V34.0234C102.094 34.7995 102.193 35.4167 102.391 35.875V36H100.875ZM98.4766 34.8984C98.9297 34.8984 99.3594 34.7812 99.7656 34.5469C100.172 34.3125 100.466 34.0078 100.648 33.6328V31.8984H99.5156C97.7448 31.8984 96.8594 32.4167 96.8594 33.4531C96.8594 33.9062 97.0104 34.2604 97.3125 34.5156C97.6146 34.7708 98.0026 34.8984 98.4766 34.8984ZM108.461 36V27.5469H111.758C112.883 27.5469 113.745 27.7448 114.344 28.1406C114.948 28.5312 115.25 29.1068 115.25 29.8672C115.25 30.2578 115.133 30.612 114.898 30.9297C114.664 31.2422 114.318 31.4818 113.859 31.6484C114.37 31.7682 114.779 32.0026 115.086 32.3516C115.398 32.7005 115.555 33.1172 115.555 33.6016C115.555 34.3776 115.268 34.9714 114.695 35.3828C114.128 35.7943 113.323 36 112.281 36H108.461ZM109.906 32.2891V34.8359H112.297C112.901 34.8359 113.352 34.724 113.648 34.5C113.951 34.276 114.102 33.9609 114.102 33.5547C114.102 32.7109 113.482 32.2891 112.242 32.2891H109.906ZM109.906 31.1328H111.773C113.128 31.1328 113.805 30.737 113.805 29.9453C113.805 29.1536 113.164 28.7448 111.883 28.7188H109.906V31.1328ZM120.102 32.3984H119.047V36H117.594V27.5469H119.047V31.125H119.992L122.836 27.5469H124.586L121.242 31.6094L124.867 36H123.031L120.102 32.3984ZM128.875 33.8828L130.844 27.5469H132.391L128.992 37.3047C128.466 38.7109 127.63 39.4141 126.484 39.4141L126.211 39.3906L125.672 39.2891V38.1172L126.062 38.1484C126.552 38.1484 126.932 38.0495 127.203 37.8516C127.479 37.6536 127.706 37.2917 127.883 36.7656L128.203 35.9062L125.188 27.5469H126.766L128.875 33.8828ZM136.969 34.9766C137.484 34.9766 137.935 34.8203 138.32 34.5078C138.706 34.1953 138.919 33.8047 138.961 33.3359H140.328C140.302 33.8203 140.135 34.2812 139.828 34.7188C139.521 35.1562 139.109 35.5052 138.594 35.7656C138.083 36.026 137.542 36.1562 136.969 36.1562C135.818 36.1562 134.901 35.7734 134.219 35.0078C133.542 34.237 133.203 33.1849 133.203 31.8516V31.6094C133.203 30.7865 133.354 30.0547 133.656 29.4141C133.958 28.7734 134.391 28.276 134.953 27.9219C135.521 27.5677 136.19 27.3906 136.961 27.3906C137.909 27.3906 138.695 27.6745 139.32 28.2422C139.951 28.8099 140.286 29.5469 140.328 30.4531H138.961C138.919 29.9062 138.711 29.4583 138.336 29.1094C137.966 28.7552 137.508 28.5781 136.961 28.5781C136.227 28.5781 135.656 28.8438 135.25 29.375C134.849 29.901 134.648 30.6641 134.648 31.6641V31.9375C134.648 32.9115 134.849 33.6615 135.25 34.1875C135.651 34.7135 136.224 34.9766 136.969 34.9766ZM148.859 36H147.414V32.3906H143.531V36H142.078V27.5469H143.531V31.2109H147.414V27.5469H148.859V36ZM150.805 31.6953C150.805 30.8672 150.966 30.1224 151.289 29.4609C151.617 28.7995 152.07 28.2891 152.648 27.9297C153.232 27.5703 153.896 27.3906 154.641 27.3906C155.792 27.3906 156.721 27.7891 157.43 28.5859C158.143 29.3828 158.5 30.4427 158.5 31.7656V31.8672C158.5 32.6901 158.341 33.4297 158.023 34.0859C157.711 34.737 157.26 35.2448 156.672 35.6094C156.089 35.974 155.417 36.1562 154.656 36.1562C153.51 36.1562 152.581 35.7578 151.867 34.9609C151.159 34.1641 150.805 33.1094 150.805 31.7969V31.6953ZM152.258 31.8672C152.258 32.8047 152.474 33.5573 152.906 34.125C153.344 34.6927 153.927 34.9766 154.656 34.9766C155.391 34.9766 155.974 34.6901 156.406 34.1172C156.839 33.5391 157.055 32.7318 157.055 31.6953C157.055 30.7682 156.833 30.0182 156.391 29.4453C155.953 28.8672 155.37 28.5781 154.641 28.5781C153.927 28.5781 153.352 28.862 152.914 29.4297C152.477 29.9974 152.258 30.8099 152.258 31.8672ZM165.781 27.5469H167.227V36H165.781V29.8359L161.883 36H160.438V27.5469H161.883V33.7188L165.781 27.5469ZM166.172 24.4688C166.172 25.099 165.956 25.6068 165.523 25.9922C165.096 26.3724 164.534 26.5625 163.836 26.5625C163.138 26.5625 162.573 26.3698 162.141 25.9844C161.708 25.599 161.492 25.0938 161.492 24.4688H162.672C162.672 24.8333 162.771 25.1198 162.969 25.3281C163.167 25.5312 163.456 25.6328 163.836 25.6328C164.201 25.6328 164.484 25.5312 164.688 25.3281C164.896 25.125 165 24.8385 165 24.4688H166.172ZM177.023 36.1562C175.878 36.1562 174.945 35.7812 174.227 35.0312C173.508 34.276 173.148 33.2682 173.148 32.0078V31.7422C173.148 30.9036 173.307 30.1562 173.625 29.5C173.948 28.8385 174.396 28.3229 174.969 27.9531C175.547 27.5781 176.172 27.3906 176.844 27.3906C177.943 27.3906 178.797 27.7526 179.406 28.4766C180.016 29.2005 180.32 30.237 180.32 31.5859V32.1875H174.594C174.615 33.0208 174.857 33.6953 175.32 34.2109C175.789 34.7214 176.383 34.9766 177.102 34.9766C177.612 34.9766 178.044 34.8724 178.398 34.6641C178.753 34.4557 179.062 34.1797 179.328 33.8359L180.211 34.5234C179.503 35.612 178.44 36.1562 177.023 36.1562ZM176.844 28.5781C176.26 28.5781 175.771 28.7917 175.375 29.2188C174.979 29.6406 174.734 30.2344 174.641 31H178.875V30.8906C178.833 30.1562 178.635 29.5885 178.281 29.1875C177.927 28.7812 177.448 28.5781 176.844 28.5781ZM181.93 34.8203L182.43 34.2031C182.992 33.474 183.312 32.3802 183.391 30.9219L183.523 27.5469H188.969V34.8203H190.055V38.4844H188.609V36H182.711V38.4844H181.266L181.273 34.8203H181.93ZM183.641 34.8203H187.523V28.8828H184.922L184.836 30.8984C184.747 32.5807 184.349 33.888 183.641 34.8203ZM193.234 30.4609H195.43C196.388 30.4714 197.146 30.7214 197.703 31.2109C198.26 31.7005 198.539 32.3646 198.539 33.2031C198.539 34.0469 198.253 34.724 197.68 35.2344C197.107 35.7448 196.336 36 195.367 36H191.789V27.5469H193.234V30.4609ZM201.555 36H200.102V27.5469H201.555V36ZM193.234 31.6406V34.8203H195.383C195.924 34.8203 196.344 34.6823 196.641 34.4062C196.938 34.125 197.086 33.7422 197.086 33.2578C197.086 32.7891 196.94 32.4062 196.648 32.1094C196.362 31.8073 195.958 31.651 195.438 31.6406H193.234Z" fill="#1D3130"/>
</svg>
