<svg width="88" height="88" viewBox="0 0 88 88" fill="none" xmlns="http://www.w3.org/2000/svg">
<circle cx="44" cy="44" r="43" stroke="#1D3130" stroke-width="2"/>
<path d="M49.8109 51.2997C49.8975 51.1587 49.9841 51.0203 50.0707 50.8767C53.9666 44.4267 55.9271 38.7844 55.899 34.1085C55.8817 30.8915 54.5918 27.8122 52.311 25.5433C50.0303 23.2744 46.9443 22.0005 43.7272 22C40.5102 21.9995 37.4237 23.2723 35.1422 25.5404C32.8608 27.8085 31.5698 30.8874 31.5514 34.1044C31.5229 38.7844 33.4837 44.4274 37.3796 50.8767C37.4662 51.0203 37.5529 51.1587 37.6395 51.2997C29.4375 52.3133 24 55.2447 24 58.725C24 63.0945 32.6625 66.5172 43.725 66.5172C54.7875 66.5172 63.45 63.0945 63.45 58.725C63.45 55.2447 58.0125 52.3133 49.8109 51.2997ZM32.8639 34.1085C32.8557 32.6768 33.1307 31.2577 33.6731 29.9326C34.2154 28.6076 35.0143 27.4028 36.0239 26.3877C37.0335 25.3725 38.2338 24.567 39.5559 24.0174C40.8779 23.4678 42.2955 23.185 43.7273 23.1853C45.159 23.1856 46.5765 23.4689 47.8983 24.019C49.2202 24.5691 50.4202 25.3751 51.4294 26.3906C52.4386 27.4062 53.2371 28.6112 53.7789 29.9364C54.3207 31.2617 54.5952 32.681 54.5865 34.1127C54.6427 43.4344 45.9277 54.9315 43.725 57.6885C41.5222 54.9315 32.8069 43.434 32.8639 34.1085ZM43.725 65.2047C32.7109 65.2047 25.3125 61.854 25.3125 58.725C25.3125 55.95 30.7984 53.3682 38.4127 52.5308C39.8854 54.8302 41.4923 57.0408 43.2251 59.151C43.2867 59.2236 43.3632 59.2819 43.4496 59.3218C43.5359 59.3618 43.6299 59.3825 43.725 59.3825C43.8201 59.3825 43.9141 59.3618 44.0004 59.3218C44.0868 59.2819 44.1633 59.2236 44.2249 59.151C45.9578 57.0408 47.5648 54.8302 49.0376 52.5308C56.6501 53.3682 62.1379 55.9485 62.1379 58.725C62.1375 61.854 54.7391 65.2047 43.725 65.2047Z" fill="black"/>
<path d="M38.5902 60.9502C35.678 60.5775 33.3402 59.9212 32.0097 59.1033C31.9363 59.0564 31.8543 59.0245 31.7684 59.0097C31.6825 58.9948 31.5946 58.9971 31.5096 59.0166C31.4247 59.0361 31.3445 59.0723 31.2737 59.1231C31.2028 59.1739 31.1429 59.2383 31.0972 59.3125C31.0516 59.3867 31.0212 59.4693 31.0078 59.5554C30.9944 59.6416 30.9983 59.7295 31.0193 59.8141C31.0402 59.8986 31.0778 59.9782 31.1298 60.0481C31.1819 60.118 31.2473 60.1769 31.3223 60.2212C32.8085 61.1347 35.3307 61.8562 38.4237 62.2518C38.4516 62.2554 38.4796 62.2572 38.5077 62.2571C38.6741 62.2563 38.8339 62.1923 38.9549 62.0782C39.0759 61.964 39.149 61.8082 39.1595 61.6422C39.17 61.4762 39.117 61.3124 39.0113 61.1839C38.9057 61.0555 38.7551 60.9719 38.5902 60.9502Z" fill="black"/>
<path d="M44.4776 62.0184C43.563 62.0394 42.6105 62.0346 41.6809 62.0004C41.5947 61.9973 41.5087 62.0111 41.4279 62.0411C41.3471 62.0712 41.2729 62.1169 41.2098 62.1756C41.1466 62.2342 41.0956 62.3048 41.0597 62.3832C41.0237 62.4616 41.0036 62.5463 41.0004 62.6325C40.9973 62.7187 41.0111 62.8046 41.0411 62.8855C41.0712 62.9663 41.1169 63.0404 41.1756 63.1036C41.2342 63.1668 41.3048 63.2178 41.3832 63.2537C41.4616 63.2896 41.5463 63.3098 41.6325 63.3129C42.2093 63.3339 42.795 63.3448 43.3755 63.3448C43.7573 63.3448 44.1349 63.3403 44.5084 63.3313C44.6824 63.3273 44.8477 63.2543 44.9678 63.1284C45.088 63.0025 45.1533 62.8341 45.1493 62.6601C45.1484 62.5735 45.1302 62.488 45.0957 62.4086C45.0613 62.3292 45.0113 62.2575 44.9487 62.1977C44.8861 62.1379 44.8122 62.0912 44.7313 62.0605C44.6504 62.0297 44.5641 62.0154 44.4776 62.0184Z" fill="black"/>
<path d="M49.0835 34.541C49.0834 33.445 48.7582 32.3736 48.1492 31.4623C47.5401 30.5511 46.6745 29.8409 45.6619 29.4216C44.6492 29.0023 43.535 28.8927 42.46 29.1066C41.3851 29.3205 40.3977 29.8484 39.6227 30.6235C38.8478 31.3986 38.3201 32.3861 38.1064 33.4611C37.8927 34.5361 38.0025 35.6503 38.422 36.6629C38.8415 37.6755 39.5519 38.5409 40.4633 39.1498C41.3746 39.7586 42.4461 40.0836 43.5421 40.0835C45.0114 40.0817 46.42 39.4972 47.4589 38.4581C48.4977 37.419 49.082 36.0103 49.0835 34.541ZM39.3129 34.541C39.313 33.7046 39.5612 32.887 40.026 32.1916C40.4908 31.4962 41.1514 30.9542 41.9242 30.6342C42.697 30.3142 43.5473 30.2306 44.3677 30.3939C45.188 30.5571 45.9415 30.96 46.5329 31.5515C47.1243 32.143 47.527 32.8966 47.6902 33.7169C47.8533 34.5373 47.7695 35.3876 47.4494 36.1604C47.1292 36.9331 46.5872 37.5936 45.8917 38.0583C45.1962 38.523 44.3786 38.771 43.5421 38.771C42.4207 38.7698 41.3455 38.3237 40.5526 37.5307C39.7597 36.7377 39.3139 35.6624 39.3129 34.541Z" fill="black"/>
</svg>
