<svg width="88" height="88" viewBox="0 0 88 88" fill="none" xmlns="http://www.w3.org/2000/svg">
<circle cx="44" cy="44" r="43" stroke="#1D3130" stroke-width="2"/>
<path d="M61.2578 53.1719V50.4766H58.5625V49.1289C58.5625 44.3848 55.0422 40.4479 50.4766 39.792V37H47.7812V39.792C43.2157 40.4479 39.6953 44.3847 39.6953 49.1289V50.4766H37V53.1719H61.2578ZM42.3906 49.1289C42.3906 45.4134 45.4134 42.3906 49.1289 42.3906C52.8444 42.3906 55.8672 45.4134 55.8672 49.1289V50.4766H42.3906V49.1289Z" fill="black"/>
<path d="M50.8281 21H21V58.8242H31.9609V67H67V29.0859H50.8281V21ZM31.9609 56.1289H23.6953V23.6953H43.7717L31.9609 29.6007V56.1289ZM48.1328 24.5283V29.0859H39.0174L48.1328 24.5283ZM64.3047 31.7812V64.3047H34.6562V31.7812H64.3047Z" fill="black"/>
<path d="M40 59H58.8672V61.6953H40V59Z" fill="black"/>
</svg>
